<?xml version="1.0" encoding="UTF-8" ?>
<!DOCTYPE svg PUBLIC "-//W3C//DTD SVG 1.1//EN" "http://www.w3.org/Graphics/SVG/1.1/DTD/svg11.dtd">
<svg width="131pt" height="383pt" viewBox="0 0 131 383" version="1.1" xmlns="http://www.w3.org/2000/svg">
<g id="#ffffffff">
<path fill="#ffffff" opacity="1.00" d=" M 0.00 0.00 L 64.20 0.00 C 59.19 1.36 54.05 2.10 48.96 3.08 C 32.77 7.21 20.06 19.58 11.58 33.52 C 7.85 41.19 4.76 49.18 0.51 56.60 L 0.00 55.50 L 0.00 0.00 Z" />
<path fill="#ffffff" opacity="1.00" d=" M 0.00 78.89 L 0.49 80.12 C 1.21 86.63 0.97 93.24 2.30 99.69 C 3.45 105.27 3.66 111.07 5.87 116.40 C 11.01 135.76 11.80 155.91 15.63 175.52 C 17.25 184.94 18.68 194.43 18.76 204.00 C 19.81 213.62 22.47 222.94 24.61 232.34 C 26.38 236.50 29.46 240.28 29.59 245.00 C 30.91 264.26 34.93 283.18 38.07 302.18 C 42.16 318.46 41.16 335.39 40.91 352.01 C 41.04 362.40 42.17 372.75 43.84 383.00 L 0.00 383.00 L 0.00 78.89 Z" />
<path fill="#ffffff" opacity="1.00" d=" M 130.49 114.26 L 131.00 113.18 L 131.00 383.00 L 47.59 383.00 C 49.45 382.64 51.40 382.24 52.83 380.90 C 58.82 375.66 62.50 368.47 67.01 362.05 C 71.93 356.14 78.38 351.71 83.26 345.76 C 84.13 344.36 83.71 342.61 83.87 341.06 C 83.68 328.54 84.21 315.88 81.63 303.55 C 80.62 292.66 80.02 281.58 81.69 270.73 C 83.32 264.49 84.22 258.11 85.81 251.86 C 87.06 246.83 87.19 241.40 89.81 236.79 C 91.80 232.61 95.75 229.60 97.01 225.04 C 100.41 214.21 109.88 205.79 110.50 194.00 C 111.47 188.49 108.21 183.50 108.44 178.04 C 108.38 173.20 107.85 168.26 109.12 163.52 C 110.49 158.29 111.60 152.89 114.10 148.05 C 116.07 144.10 121.17 143.14 123.01 139.07 C 126.75 131.21 127.99 122.53 130.49 114.26 Z" />
</g>
<g id="#071406ff">
<path fill="#071406" opacity="1.00" d=" M 64.20 0.00 L 64.89 0.00 C 72.12 2.39 79.80 3.13 86.89 6.01 C 93.94 8.82 101.46 11.53 106.78 17.19 C 112.80 23.48 116.36 31.82 117.82 40.33 C 121.16 51.12 125.63 61.66 127.09 72.94 C 127.41 78.31 127.48 83.70 127.29 89.07 C 127.04 94.24 128.65 99.25 130.37 104.06 C 130.19 107.46 130.24 110.87 130.49 114.26 C 127.99 122.53 126.75 131.21 123.01 139.07 C 121.17 143.14 116.07 144.10 114.10 148.05 C 111.60 152.89 110.49 158.29 109.12 163.52 C 107.85 168.26 108.38 173.20 108.44 178.04 C 108.21 183.50 111.47 188.49 110.50 194.00 C 109.88 205.79 100.41 214.21 97.01 225.04 C 95.75 229.60 91.80 232.61 89.81 236.79 C 87.19 241.40 87.06 246.83 85.81 251.86 C 84.22 258.11 83.32 264.49 81.69 270.73 C 80.02 281.58 80.62 292.66 81.63 303.55 C 84.21 315.88 83.68 328.54 83.87 341.06 C 83.71 342.61 84.13 344.36 83.26 345.76 C 78.38 351.71 71.93 356.14 67.01 362.05 C 62.50 368.47 58.82 375.66 52.83 380.90 C 51.40 382.24 49.45 382.64 47.59 383.00 L 43.84 383.00 C 42.17 372.75 41.04 362.40 40.91 352.01 C 41.16 335.39 42.16 318.46 38.07 302.18 C 34.93 283.18 30.91 264.26 29.59 245.00 C 29.46 240.28 26.38 236.50 24.61 232.34 C 22.47 222.94 19.81 213.62 18.76 204.00 C 18.68 194.43 17.25 184.94 15.63 175.52 C 11.80 155.91 11.01 135.76 5.87 116.40 C 3.66 111.07 3.45 105.27 2.30 99.69 C 0.97 93.24 1.21 86.63 0.49 80.12 C 1.22 72.31 1.24 64.41 0.51 56.60 C 4.76 49.18 7.85 41.19 11.58 33.52 C 20.06 19.58 32.77 7.21 48.96 3.08 C 54.05 2.10 59.19 1.36 64.20 0.00 M 44.69 9.51 C 34.30 12.60 26.22 20.46 20.00 29.03 C 14.97 35.17 12.36 42.77 8.75 49.74 C 6.47 54.15 4.83 58.92 4.48 63.90 C 4.71 69.41 4.24 74.96 5.17 80.42 C 3.90 90.96 6.91 101.30 8.19 111.67 C 10.89 111.03 13.66 111.12 16.38 111.63 C 16.12 108.19 14.81 104.89 11.90 102.87 C 11.55 102.07 10.86 100.46 10.52 99.66 C 10.32 98.13 10.10 96.60 9.89 95.08 C 10.96 93.71 12.05 92.35 13.14 90.99 C 11.19 88.20 8.68 85.46 8.33 81.92 C 7.59 74.82 9.84 67.87 9.92 60.79 C 10.53 59.44 11.08 58.07 11.64 56.71 C 15.68 56.01 16.83 52.17 17.72 48.72 C 18.36 48.56 19.64 48.23 20.28 48.07 C 20.76 55.24 17.53 61.94 17.38 69.06 C 17.07 73.77 17.99 78.43 19.17 82.97 C 17.86 83.47 16.55 83.98 15.24 84.49 C 16.10 87.26 17.20 90.02 17.29 92.95 C 16.89 95.16 15.36 96.92 14.25 98.80 C 16.64 101.54 19.87 104.09 20.14 108.01 C 20.54 112.49 21.27 116.96 23.35 121.01 C 22.29 122.44 21.20 123.85 20.12 125.28 C 21.85 126.04 23.63 126.70 25.20 127.77 C 25.34 132.06 25.47 136.36 26.96 140.46 C 25.58 140.03 24.13 139.76 22.86 139.05 C 20.63 136.73 20.45 133.33 19.48 130.42 C 18.58 127.12 16.06 124.62 14.82 121.48 C 14.04 119.12 13.76 116.64 13.27 114.22 C 12.45 114.46 10.82 114.93 10.00 115.17 C 10.12 118.58 10.66 121.96 11.67 125.23 C 13.88 132.58 14.94 140.20 16.21 147.75 C 17.60 158.60 17.63 169.72 20.82 180.27 C 19.77 185.04 22.69 190.61 28.06 190.43 C 35.79 189.97 40.93 197.28 41.90 204.21 C 44.16 214.90 44.72 226.17 41.75 236.78 C 43.11 236.65 44.47 236.53 45.84 236.40 C 44.63 244.14 44.96 252.11 42.74 259.68 C 41.37 264.04 42.82 268.54 44.29 272.66 C 45.74 277.25 48.14 282.65 45.23 287.16 C 43.97 284.90 42.70 282.64 41.29 280.47 C 42.75 277.01 40.80 273.74 38.35 271.35 C 37.68 276.05 37.92 280.98 40.06 285.30 C 40.24 290.07 41.12 294.81 42.42 299.40 C 43.57 296.76 43.29 292.93 46.28 291.54 C 46.45 292.05 46.78 293.08 46.95 293.59 C 46.22 299.70 49.74 305.07 49.77 311.03 C 48.76 310.34 47.75 309.64 46.76 308.93 C 46.17 307.88 45.61 306.81 45.03 305.75 C 43.94 312.31 45.13 318.93 46.78 325.28 C 46.71 328.87 46.78 332.46 46.67 336.05 C 46.50 344.25 44.82 352.52 46.65 360.66 C 49.04 355.95 50.62 350.86 53.39 346.35 C 54.85 343.48 57.00 340.81 57.55 337.59 C 60.16 334.36 62.61 330.91 64.13 327.02 C 65.83 323.52 67.40 319.93 69.61 316.70 C 70.51 317.75 71.41 318.83 72.30 319.90 C 73.61 315.63 76.01 311.62 76.10 307.05 C 76.35 301.70 75.98 296.34 76.15 290.99 C 76.13 286.74 76.70 282.24 74.74 278.31 C 73.77 287.30 74.12 296.45 72.43 305.37 C 71.95 308.18 70.59 310.73 69.05 313.10 C 64.38 304.67 66.06 294.64 63.89 285.55 C 64.18 284.56 64.46 283.57 64.74 282.58 C 65.35 282.43 66.57 282.15 67.19 282.01 C 67.43 285.32 67.46 288.65 67.83 291.96 C 68.36 291.70 69.43 291.17 69.97 290.90 C 70.08 287.21 71.06 283.41 70.07 279.78 C 68.21 275.62 65.31 271.96 61.89 268.95 C 60.74 267.17 61.89 265.24 62.46 263.48 C 62.94 263.57 63.91 263.75 64.39 263.83 C 64.83 267.03 65.93 270.13 68.46 272.27 C 70.13 268.94 71.84 265.60 73.09 262.09 C 74.26 258.63 73.33 254.95 72.43 251.55 C 71.17 254.78 70.59 258.21 69.65 261.54 C 66.32 259.50 66.72 255.45 66.92 252.08 C 70.15 246.92 71.25 240.82 70.23 234.83 C 71.37 234.94 72.50 235.05 73.64 235.17 C 74.20 239.45 74.90 243.71 76.04 247.88 C 77.57 253.43 76.23 259.35 78.14 264.84 C 80.63 260.30 81.06 255.08 82.14 250.11 C 82.98 245.69 84.40 241.11 83.10 236.62 C 82.65 236.72 81.73 236.94 81.27 237.04 C 80.53 239.49 80.11 242.02 79.54 244.51 C 78.80 244.12 77.31 243.34 76.57 242.95 C 77.20 238.60 77.57 234.19 76.82 229.82 C 75.19 229.80 73.56 229.80 71.93 229.83 C 69.03 225.87 65.57 220.75 68.04 215.72 C 68.85 215.58 69.66 215.46 70.47 215.33 C 70.54 218.45 70.69 221.57 71.19 224.65 C 75.98 220.82 73.85 214.20 71.55 209.59 C 70.28 208.09 72.18 206.33 73.75 207.17 C 75.72 208.72 76.94 210.98 78.44 212.94 C 80.12 209.85 82.42 207.03 83.48 203.63 C 84.38 198.64 83.96 193.45 82.64 188.57 C 80.31 193.30 80.05 198.63 79.03 203.71 C 77.56 203.76 76.10 203.82 74.64 203.88 C 74.49 198.92 75.17 193.88 77.39 189.39 C 79.40 185.30 81.38 181.15 82.17 176.62 L 82.45 175.86 C 84.97 177.64 87.14 179.85 89.26 182.09 C 90.81 180.80 92.33 179.47 93.81 178.11 C 89.79 176.69 84.48 174.42 85.20 169.21 C 89.72 167.73 92.23 172.68 94.46 175.65 C 95.36 177.32 97.79 177.20 98.81 175.71 C 99.22 172.23 95.81 170.40 93.60 168.41 C 90.73 166.37 90.74 162.48 89.32 159.53 C 89.41 159.39 89.58 159.10 89.66 158.96 C 91.02 158.54 93.05 158.76 93.35 156.94 C 92.83 154.82 91.83 152.87 91.34 150.75 C 92.98 150.41 94.63 150.08 96.28 149.73 C 94.80 146.85 92.96 144.17 90.77 141.79 C 90.62 138.91 90.75 136.03 91.12 133.17 C 93.74 129.51 94.34 124.99 95.81 120.84 C 97.14 117.11 101.28 115.64 103.37 112.47 C 104.50 108.00 105.03 103.38 106.62 99.02 C 103.72 99.48 100.61 100.54 97.80 99.11 C 99.07 97.38 100.57 95.83 102.03 94.26 C 100.49 93.71 98.95 93.17 97.41 92.63 C 97.40 91.99 97.38 90.72 97.37 90.08 C 99.96 90.34 102.73 90.47 104.86 92.18 C 106.70 93.12 108.35 95.30 110.62 94.75 C 113.65 92.23 113.90 88.09 113.84 84.46 C 111.99 86.34 110.33 88.40 108.53 90.34 C 107.50 88.36 106.53 86.35 105.57 84.34 C 104.02 83.93 102.47 83.54 100.92 83.15 C 101.53 77.53 107.36 75.20 110.68 71.32 C 110.01 70.25 109.34 69.18 108.67 68.11 C 108.15 68.17 107.09 68.31 106.57 68.37 C 105.67 69.99 104.77 71.60 103.86 73.21 C 102.77 73.00 101.68 72.79 100.59 72.58 C 99.91 65.85 98.73 59.19 97.68 52.52 C 99.14 53.30 100.73 53.93 101.97 55.07 C 103.70 57.28 104.25 60.14 105.61 62.57 C 107.65 63.52 107.48 60.57 107.58 59.29 C 106.40 54.54 101.67 51.76 100.07 47.19 C 100.96 46.53 102.26 45.99 103.26 46.78 C 105.84 48.58 107.73 51.17 110.13 53.19 C 108.31 46.64 103.68 41.32 101.91 34.72 C 100.90 38.07 101.25 43.37 96.92 44.33 C 93.66 44.75 91.62 41.99 90.36 39.42 C 92.79 39.09 95.23 38.81 97.67 38.49 C 96.75 36.41 95.19 34.79 93.34 33.51 C 90.58 31.56 89.78 27.94 87.22 25.79 C 85.02 23.93 82.35 22.79 79.85 21.42 C 81.33 20.26 82.83 19.13 84.34 18.00 C 83.50 16.43 82.65 14.85 81.84 13.26 C 84.78 13.95 87.67 14.86 90.49 15.95 C 94.00 18.59 97.99 20.71 100.85 24.12 C 103.68 27.46 105.79 31.33 107.84 35.18 C 109.97 39.07 109.80 43.62 110.33 47.90 C 111.45 47.78 112.58 47.65 113.70 47.53 C 113.46 34.29 107.20 19.69 94.57 14.05 C 88.16 10.23 80.92 8.26 73.81 6.22 C 64.06 4.65 53.82 5.67 44.69 9.51 M 97.10 29.34 C 97.06 30.52 97.03 31.70 97.00 32.88 C 97.86 32.85 99.57 32.80 100.43 32.77 C 100.07 31.10 99.69 29.42 99.30 27.76 C 98.75 28.15 97.65 28.94 97.10 29.34 M 114.11 48.47 C 114.23 50.94 114.44 53.42 114.93 55.85 C 117.60 53.85 118.03 49.27 114.11 48.47 M 110.52 62.94 C 111.20 62.67 112.57 62.13 113.26 61.86 C 113.03 60.46 112.80 59.06 112.56 57.66 C 111.84 59.41 111.17 61.17 110.52 62.94 M 118.33 57.49 C 117.99 60.57 116.72 64.48 119.71 66.70 C 120.28 63.53 120.09 60.26 118.33 57.49 M 121.00 82.84 C 122.10 79.20 122.14 75.39 121.63 71.65 C 119.98 75.15 117.56 79.54 121.00 82.84 M 10.06 76.50 C 10.17 78.73 10.37 80.95 10.65 83.16 C 11.37 82.80 12.81 82.08 13.53 81.72 C 13.04 79.55 12.44 77.25 10.06 76.50 M 111.57 99.55 C 107.38 104.77 107.05 111.74 104.95 117.86 C 102.23 125.53 104.19 134.43 109.47 140.53 C 110.19 141.30 111.03 141.92 112.00 142.36 C 116.79 140.88 121.29 136.39 120.91 131.07 C 120.87 128.67 119.35 126.68 118.35 124.60 C 120.18 124.11 122.02 123.62 123.85 123.10 C 122.07 118.03 120.96 112.77 119.33 107.67 C 115.26 112.73 114.33 119.37 111.34 125.01 C 112.71 127.70 114.08 130.45 114.31 133.52 C 109.37 132.72 108.17 126.50 109.45 122.41 C 111.29 116.77 112.60 110.84 115.65 105.70 C 116.94 103.16 121.15 102.93 122.31 105.70 C 123.85 109.22 124.04 113.23 126.11 116.56 C 129.13 110.46 128.34 101.75 122.57 97.47 C 119.21 94.83 114.07 96.46 111.57 99.55 M 98.72 123.83 C 97.17 129.93 93.91 135.78 94.75 142.27 C 96.13 141.25 97.49 140.21 98.85 139.17 C 100.37 139.80 101.90 140.42 103.45 141.02 C 100.75 135.63 99.51 129.76 98.72 123.83 M 98.21 144.40 C 97.68 146.03 98.23 146.59 99.86 146.06 C 100.39 144.43 99.84 143.88 98.21 144.40 M 105.41 144.41 C 104.04 145.64 106.20 147.73 107.41 146.39 C 108.77 145.16 106.62 143.06 105.41 144.41 M 98.10 158.07 C 97.85 161.44 96.92 165.91 100.59 167.79 C 100.95 163.37 100.41 158.83 101.67 154.52 C 102.35 152.18 103.00 149.83 103.40 147.42 C 99.58 149.61 98.46 154.00 98.10 158.07 M 105.08 156.57 C 104.15 157.71 104.40 158.36 105.84 158.50 C 106.77 157.35 106.52 156.71 105.08 156.57 M 99.73 174.33 C 102.43 174.39 102.77 171.61 103.31 169.61 C 100.65 169.62 100.24 172.32 99.73 174.33 M 98.31 180.31 C 92.29 182.72 88.19 188.85 87.53 195.22 C 86.80 204.94 82.98 214.24 83.00 224.03 C 82.70 227.73 87.58 231.63 90.75 228.79 C 93.91 224.40 94.12 218.63 97.12 214.15 C 99.50 210.52 102.51 207.25 104.14 203.17 C 106.62 197.80 108.81 191.39 106.35 185.63 C 104.61 182.96 101.73 180.00 98.31 180.31 M 23.33 196.36 C 20.95 198.65 22.54 201.95 23.85 204.34 C 25.96 203.03 28.02 201.63 30.12 200.31 C 31.17 201.66 33.27 202.82 32.25 204.81 C 30.46 205.19 28.65 205.43 26.84 205.72 C 28.60 209.54 31.64 212.46 34.42 215.53 C 36.97 218.16 36.83 222.33 34.92 225.28 C 32.59 220.08 29.18 215.45 25.23 211.37 C 23.40 215.43 24.68 219.82 26.06 223.78 C 27.53 228.02 28.74 232.83 32.42 235.75 C 35.58 237.02 37.79 233.59 39.50 231.50 C 42.39 228.32 41.37 223.85 41.29 219.97 C 41.27 215.04 38.17 210.84 37.79 205.99 C 37.50 202.93 37.12 199.52 34.62 197.39 C 31.82 194.39 26.30 192.59 23.33 196.36 M 81.88 228.93 C 81.68 230.40 81.49 231.88 81.32 233.37 C 82.39 232.40 83.46 231.45 84.51 230.46 C 83.85 230.08 82.54 229.31 81.88 228.93 M 39.18 238.16 C 37.30 238.51 37.66 241.82 39.72 241.04 C 41.56 240.66 41.21 237.40 39.18 238.16 M 35.06 241.17 C 33.62 247.46 34.26 254.02 35.75 260.24 C 37.08 259.05 38.55 257.96 39.62 256.50 C 40.35 251.03 38.11 245.61 35.06 241.17 M 73.86 273.86 C 76.96 273.09 77.10 269.99 77.08 267.35 C 74.28 268.47 73.69 271.08 73.86 273.86 M 77.43 316.77 C 77.42 318.57 77.46 320.39 77.96 322.13 C 79.25 321.20 79.96 319.76 80.70 318.41 C 79.89 318.00 78.25 317.18 77.43 316.77 M 72.40 326.29 C 71.28 326.80 70.37 327.64 69.54 328.53 C 63.48 335.51 58.74 343.57 55.06 352.03 C 51.72 359.53 49.79 367.54 47.36 375.35 C 46.00 378.38 50.30 381.11 52.47 378.67 C 56.24 374.52 58.55 369.32 61.80 364.78 C 66.66 357.43 73.97 352.14 78.89 344.84 C 81.71 340.76 81.59 335.35 80.29 330.76 C 79.34 327.59 75.72 324.84 72.40 326.29 Z" />
</g>
<g id="#fffffeff">
<path fill="#fffffe" opacity="1.00" d=" M 64.89 0.00 L 131.00 0.00 L 131.00 105.19 L 130.37 104.06 C 128.65 99.25 127.04 94.24 127.29 89.07 C 127.48 83.70 127.41 78.31 127.09 72.94 C 125.63 61.66 121.16 51.12 117.82 40.33 C 116.36 31.82 112.80 23.48 106.78 17.19 C 101.46 11.53 93.94 8.82 86.89 6.01 C 79.80 3.13 72.12 2.39 64.89 0.00 Z" />
</g>
<g id="#639904ff">
<path fill="#639904" opacity="1.00" d=" M 44.69 9.51 C 53.82 5.67 64.06 4.65 73.81 6.22 C 80.92 8.26 88.16 10.23 94.57 14.05 C 93.19 14.65 91.84 15.30 90.49 15.95 C 87.67 14.86 84.78 13.95 81.84 13.26 C 82.65 14.85 83.50 16.43 84.34 18.00 C 82.83 19.13 81.33 20.26 79.85 21.42 C 82.35 22.79 85.02 23.93 87.22 25.79 C 89.78 27.94 90.58 31.56 93.34 33.51 C 95.19 34.79 96.75 36.41 97.67 38.49 C 95.23 38.81 92.79 39.09 90.36 39.42 C 91.62 41.99 93.66 44.75 96.92 44.33 C 101.25 43.37 100.90 38.07 101.91 34.72 C 103.68 41.32 108.31 46.64 110.13 53.19 C 107.73 51.17 105.84 48.58 103.26 46.78 C 102.26 45.99 100.96 46.53 100.07 47.19 C 101.67 51.76 106.40 54.54 107.58 59.29 C 107.48 60.57 107.65 63.52 105.61 62.57 C 104.25 60.14 103.70 57.28 101.97 55.07 C 100.73 53.93 99.14 53.30 97.68 52.52 C 98.73 59.19 99.91 65.85 100.59 72.58 C 101.68 72.79 102.77 73.00 103.86 73.21 C 104.77 71.60 105.67 69.99 106.57 68.37 C 107.09 68.31 108.15 68.17 108.67 68.11 C 109.34 69.18 110.01 70.25 110.68 71.32 C 107.36 75.20 101.53 77.53 100.92 83.15 C 102.47 83.54 104.02 83.93 105.57 84.34 C 106.53 86.35 107.50 88.36 108.53 90.34 C 110.33 88.40 111.99 86.34 113.84 84.46 C 113.90 88.09 113.65 92.23 110.62 94.75 C 108.35 95.30 106.70 93.12 104.86 92.18 C 102.73 90.47 99.96 90.34 97.37 90.08 C 97.38 90.72 97.40 91.99 97.41 92.63 C 98.95 93.17 100.49 93.71 102.03 94.26 C 100.57 95.83 99.07 97.38 97.80 99.11 C 100.61 100.54 103.72 99.48 106.62 99.02 C 105.03 103.38 104.50 108.00 103.37 112.47 C 101.28 115.64 97.14 117.11 95.81 120.84 C 94.34 124.99 93.74 129.51 91.12 133.17 C 92.90 126.32 87.16 120.22 89.22 113.45 L 89.37 112.56 L 89.54 111.67 C 90.04 113.52 90.61 115.35 91.16 117.19 C 91.83 117.19 93.18 117.18 93.86 117.18 C 95.33 112.58 96.90 108.01 98.08 103.33 C 93.93 103.93 90.81 106.79 89.71 110.81 C 90.30 107.63 90.87 104.38 90.45 101.15 C 89.87 96.65 87.57 92.54 87.19 88.00 C 87.00 84.22 88.85 80.79 90.11 77.34 C 90.41 78.55 90.74 79.76 91.08 80.97 C 92.28 80.91 93.48 80.85 94.68 80.79 C 94.82 79.50 94.96 78.22 95.10 76.93 C 93.53 76.77 91.95 76.62 90.38 76.47 C 89.84 75.41 89.30 74.35 88.76 73.30 C 90.59 72.88 92.42 72.45 94.25 72.03 C 94.05 70.48 93.85 68.94 93.65 67.39 C 91.58 68.50 89.52 69.65 87.49 70.84 C 86.73 69.37 85.97 67.90 85.28 66.40 C 88.72 64.32 93.04 62.14 93.92 57.81 C 93.90 54.33 91.94 51.26 90.77 48.08 C 89.56 48.10 88.35 48.12 87.14 48.15 C 87.03 48.86 86.81 50.26 86.71 50.97 C 88.07 52.56 89.44 54.14 90.79 55.74 C 88.50 58.22 86.20 60.70 83.93 63.20 C 80.54 53.28 80.96 42.33 76.07 32.87 C 70.97 33.80 65.96 32.44 61.14 30.88 C 55.58 29.01 50.13 32.04 45.11 34.10 C 41.14 35.79 37.10 38.28 35.51 42.52 C 31.72 51.74 34.18 62.08 31.28 71.52 C 30.56 74.57 28.91 77.50 29.01 80.69 C 30.07 85.11 32.74 89.00 33.47 93.53 C 35.50 104.39 31.62 115.14 31.86 126.00 C 31.77 133.38 34.13 140.56 33.74 147.95 C 33.66 153.87 32.19 160.03 34.20 165.78 C 36.06 170.94 42.15 172.63 44.64 177.27 C 46.54 185.53 41.96 193.62 42.94 201.89 C 45.00 206.27 51.77 207.01 52.77 212.17 C 53.70 218.09 53.43 224.13 53.13 230.09 C 52.87 236.19 49.49 241.77 49.91 247.95 C 50.41 256.10 53.24 263.84 55.32 271.67 C 56.60 276.33 56.46 281.19 56.36 285.97 C 56.07 297.98 58.53 309.92 57.72 321.94 C 57.32 327.15 57.37 332.37 57.55 337.59 C 57.00 340.81 54.85 343.48 53.39 346.35 C 50.62 350.86 49.04 355.95 46.65 360.66 C 44.82 352.52 46.50 344.25 46.67 336.05 C 46.78 332.46 46.71 328.87 46.78 325.28 C 48.32 323.96 51.08 323.37 51.33 321.04 C 51.59 319.72 51.65 318.37 51.65 317.03 C 51.39 316.54 50.86 315.55 50.60 315.06 C 49.36 312.99 47.94 311.03 46.76 308.93 C 47.75 309.64 48.76 310.34 49.77 311.03 C 49.74 305.07 46.22 299.70 46.95 293.59 C 47.87 296.38 48.97 299.10 50.16 301.79 C 50.86 299.58 51.82 297.38 51.91 295.04 C 51.51 293.06 50.56 291.27 49.75 289.44 C 48.59 290.13 47.43 290.83 46.28 291.54 C 43.29 292.93 43.57 296.76 42.42 299.40 C 41.12 294.81 40.24 290.07 40.06 285.30 C 40.43 283.67 40.88 282.08 41.29 280.47 C 42.70 282.64 43.97 284.90 45.23 287.16 C 48.14 282.65 45.74 277.25 44.29 272.66 C 42.82 268.54 41.37 264.04 42.74 259.68 C 44.96 252.11 44.63 244.14 45.84 236.40 C 44.47 236.53 43.11 236.65 41.75 236.78 C 44.72 226.17 44.16 214.90 41.90 204.21 C 40.93 197.28 35.79 189.97 28.06 190.43 C 30.46 189.91 32.65 188.76 34.73 187.49 C 31.18 186.96 27.59 186.79 24.01 187.03 C 23.03 183.98 22.03 180.94 20.99 177.91 C 20.95 178.50 20.87 179.68 20.82 180.27 C 17.63 169.72 17.60 158.60 16.21 147.75 C 14.94 140.20 13.88 132.58 11.67 125.23 C 10.66 121.96 10.12 118.58 10.00 115.17 C 10.82 114.93 12.45 114.46 13.27 114.22 C 13.76 116.64 14.04 119.12 14.82 121.48 C 16.06 124.62 18.58 127.12 19.48 130.42 C 20.45 133.33 20.63 136.73 22.86 139.05 C 24.13 139.76 25.58 140.03 26.96 140.46 C 25.47 136.36 25.34 132.06 25.20 127.77 C 23.63 126.70 21.85 126.04 20.12 125.28 C 21.20 123.85 22.29 122.44 23.35 121.01 C 21.27 116.96 20.54 112.49 20.14 108.01 C 19.87 104.09 16.64 101.54 14.25 98.80 C 15.36 96.92 16.89 95.16 17.29 92.95 C 17.20 90.02 16.10 87.26 15.24 84.49 C 16.55 83.98 17.86 83.47 19.17 82.97 C 17.99 78.43 17.07 73.77 17.38 69.06 C 17.53 61.94 20.76 55.24 20.28 48.07 C 19.64 48.23 18.36 48.56 17.72 48.72 C 16.83 52.17 15.68 56.01 11.64 56.71 C 11.08 58.07 10.53 59.44 9.92 60.79 C 9.40 61.96 8.86 63.13 8.37 64.32 C 8.32 63.49 8.22 61.84 8.17 61.02 C 6.94 61.98 5.71 62.94 4.48 63.90 C 4.83 58.92 6.47 54.15 8.75 49.74 C 12.36 42.77 14.97 35.17 20.00 29.03 C 26.22 20.46 34.30 12.60 44.69 9.51 M 98.37 72.80 C 99.96 67.37 98.62 61.75 96.58 56.64 C 94.11 61.94 96.21 67.79 98.37 72.80 M 19.67 94.89 C 20.57 97.07 21.89 99.03 23.64 100.62 C 23.91 99.01 24.17 97.40 24.42 95.79 C 22.83 95.49 21.25 95.17 19.67 94.89 M 98.80 104.11 C 97.87 107.34 99.43 110.43 101.72 112.64 C 103.34 108.70 104.00 104.43 103.09 100.23 C 101.55 101.36 98.95 101.83 98.80 104.11 M 21.77 107.01 C 21.75 108.95 21.72 110.89 21.70 112.83 C 22.29 113.13 23.45 113.73 24.04 114.03 C 23.99 111.72 23.94 109.41 23.89 107.10 C 23.36 107.08 22.30 107.03 21.77 107.01 M 22.83 143.82 C 23.22 146.05 23.68 148.26 24.18 150.46 C 27.25 149.47 28.77 146.79 29.48 143.80 C 27.26 143.74 25.04 143.76 22.83 143.82 Z" />
</g>
<g id="#89af0aff">
<path fill="#89af0a" opacity="1.00" d=" M 94.57 14.05 C 107.20 19.69 113.46 34.29 113.70 47.53 C 112.58 47.65 111.45 47.78 110.33 47.90 C 109.80 43.62 109.97 39.07 107.84 35.18 C 105.79 31.33 103.68 27.46 100.85 24.12 C 97.99 20.71 94.00 18.59 90.49 15.95 C 91.84 15.30 93.19 14.65 94.57 14.05 Z" />
</g>
<g id="#70902bff">
<path fill="#70902b" opacity="1.00" d=" M 97.10 29.34 C 97.65 28.94 98.75 28.15 99.30 27.76 C 99.69 29.42 100.07 31.10 100.43 32.77 C 99.57 32.80 97.86 32.85 97.00 32.88 C 97.03 31.70 97.06 30.52 97.10 29.34 Z" />
</g>
<g id="#9eb204ff">
<path fill="#9eb204" opacity="1.00" d=" M 45.11 34.10 C 50.13 32.04 55.58 29.01 61.14 30.88 C 65.96 32.44 70.97 33.80 76.07 32.87 C 80.96 42.33 80.54 53.28 83.93 63.20 C 84.35 64.28 84.79 65.35 85.28 66.40 C 85.97 67.90 86.73 69.37 87.49 70.84 C 87.81 71.46 88.44 72.69 88.76 73.30 C 89.30 74.35 89.84 75.41 90.38 76.47 L 90.11 77.34 C 88.85 80.79 87.00 84.22 87.19 88.00 C 87.57 92.54 89.87 96.65 90.45 101.15 C 90.87 104.38 90.30 107.63 89.71 110.81 L 89.54 111.67 L 89.37 112.56 C 89.00 110.71 88.55 108.87 88.10 107.04 C 87.49 109.19 86.90 111.35 86.31 113.51 C 87.04 113.49 88.49 113.46 89.22 113.45 C 87.16 120.22 92.90 126.32 91.12 133.17 C 90.75 136.03 90.62 138.91 90.77 141.79 C 90.86 144.78 90.96 147.77 91.34 150.75 C 91.83 152.87 92.83 154.82 93.35 156.94 C 93.05 158.76 91.02 158.54 89.66 158.96 C 89.58 159.10 89.41 159.39 89.32 159.53 C 89.02 160.05 88.42 161.08 88.12 161.59 C 86.73 162.89 85.30 164.14 83.87 165.40 C 84.38 165.47 85.41 165.60 85.92 165.67 C 83.85 168.71 83.39 172.39 82.45 175.86 L 82.17 176.62 C 78.47 181.53 73.38 185.90 72.29 192.27 C 70.89 200.09 71.22 208.28 68.04 215.72 C 65.57 220.75 69.03 225.87 71.93 229.83 C 72.88 231.01 73.84 232.17 74.81 233.34 C 73.28 233.83 71.75 234.33 70.23 234.83 C 71.25 240.82 70.15 246.92 66.92 252.08 C 65.14 255.76 63.83 259.64 62.46 263.48 C 61.89 265.24 60.74 267.17 61.89 268.95 C 63.65 273.30 66.56 277.26 67.19 282.01 C 66.57 282.15 65.35 282.43 64.74 282.58 C 64.46 283.57 64.18 284.56 63.89 285.55 C 63.51 286.79 63.16 288.03 62.83 289.29 C 62.47 284.87 61.41 280.54 59.75 276.43 C 57.94 286.99 57.80 298.08 61.43 308.30 C 62.31 303.82 63.02 299.30 63.17 294.74 C 64.51 305.40 66.61 316.35 64.13 327.02 C 62.61 330.91 60.16 334.36 57.55 337.59 C 57.37 332.37 57.32 327.15 57.72 321.94 C 58.53 309.92 56.07 297.98 56.36 285.97 C 56.46 281.19 56.60 276.33 55.32 271.67 C 53.24 263.84 50.41 256.10 49.91 247.95 C 49.49 241.77 52.87 236.19 53.13 230.09 C 53.43 224.13 53.70 218.09 52.77 212.17 C 51.77 207.01 45.00 206.27 42.94 201.89 C 41.96 193.62 46.54 185.53 44.64 177.27 C 42.15 172.63 36.06 170.94 34.20 165.78 C 32.19 160.03 33.66 153.87 33.74 147.95 C 34.13 140.56 31.77 133.38 31.86 126.00 C 31.62 115.14 35.50 104.39 33.47 93.53 C 32.74 89.00 30.07 85.11 29.01 80.69 C 28.91 77.50 30.56 74.57 31.28 71.52 C 34.18 62.08 31.72 51.74 35.51 42.52 C 37.10 38.28 41.14 35.79 45.11 34.10 M 62.46 37.51 C 56.27 40.53 51.34 46.92 51.20 53.98 C 50.60 67.66 50.77 81.36 51.07 95.05 C 51.10 103.15 54.47 110.86 54.01 119.00 C 53.35 133.68 52.17 148.45 53.94 163.10 C 54.55 167.15 52.98 171.36 54.58 175.28 C 55.96 179.02 56.39 183.02 56.27 187.00 C 55.99 200.16 56.44 213.39 58.70 226.38 C 59.60 225.35 60.49 224.32 61.38 223.29 C 62.91 223.44 64.44 223.59 65.98 223.74 C 66.24 219.80 66.24 215.85 65.94 211.91 C 64.61 212.82 63.29 213.74 61.97 214.67 C 64.92 205.40 63.76 195.57 64.68 186.02 C 65.35 180.93 68.81 176.73 69.55 171.64 C 70.98 162.06 71.01 152.21 73.91 142.89 C 76.00 136.13 75.99 129.00 76.32 122.01 C 77.08 107.68 76.97 93.31 78.14 79.00 C 78.48 74.56 79.99 70.35 81.08 66.06 C 82.11 62.48 80.18 59.00 79.38 55.58 C 77.74 50.55 77.60 44.91 74.63 40.40 C 71.50 37.46 66.55 36.71 62.46 37.51 M 75.70 174.24 C 76.12 176.23 76.53 178.23 77.16 180.17 C 79.77 179.67 79.40 176.30 80.28 174.35 C 78.75 174.30 77.23 174.27 75.70 174.24 M 57.41 263.25 C 57.22 265.08 57.06 266.92 56.91 268.76 C 57.48 269.09 58.63 269.73 59.21 270.06 C 59.06 267.69 58.91 265.21 57.41 263.25 M 61.34 321.29 C 59.92 324.77 59.21 328.49 59.18 332.24 C 60.23 330.84 61.39 329.48 62.09 327.85 C 62.85 325.66 61.80 323.42 61.34 321.29 Z" />
</g>
<g id="#e4d810ff">
<path fill="#e4d810" opacity="1.00" d=" M 62.46 37.51 C 66.55 36.71 71.50 37.46 74.63 40.40 C 77.60 44.91 77.74 50.55 79.38 55.58 C 80.18 59.00 82.11 62.48 81.08 66.06 C 79.99 70.35 78.48 74.56 78.14 79.00 C 76.97 93.31 77.08 107.68 76.32 122.01 C 75.99 129.00 76.00 136.13 73.91 142.89 C 71.01 152.21 70.98 162.06 69.55 171.64 C 68.81 176.73 65.35 180.93 64.68 186.02 C 63.76 195.57 64.92 205.40 61.97 214.67 C 63.29 213.74 64.61 212.82 65.94 211.91 C 66.24 215.85 66.24 219.80 65.98 223.74 C 64.44 223.59 62.91 223.44 61.38 223.29 C 60.49 224.32 59.60 225.35 58.70 226.38 C 56.44 213.39 55.99 200.16 56.27 187.00 C 56.39 183.02 55.96 179.02 54.58 175.28 C 52.98 171.36 54.55 167.15 53.94 163.10 C 52.17 148.45 53.35 133.68 54.01 119.00 C 54.47 110.86 51.10 103.15 51.07 95.05 C 50.77 81.36 50.60 67.66 51.20 53.98 C 51.34 46.92 56.27 40.53 62.46 37.51 Z" />
</g>
<g id="#172f08ff">
<path fill="#172f08" opacity="1.00" d=" M 87.14 48.15 C 88.35 48.12 89.56 48.10 90.77 48.08 C 91.94 51.26 93.90 54.33 93.92 57.81 C 93.04 62.14 88.72 64.32 85.28 66.40 C 84.79 65.35 84.35 64.28 83.93 63.20 C 86.20 60.70 88.50 58.22 90.79 55.74 C 89.44 54.14 88.07 52.56 86.71 50.97 C 86.81 50.26 87.03 48.86 87.14 48.15 Z" />
</g>
<g id="#6e8b2aff">
<path fill="#6e8b2a" opacity="1.00" d=" M 114.11 48.47 C 118.03 49.27 117.60 53.85 114.93 55.85 C 114.44 53.42 114.23 50.94 114.11 48.47 Z" />
</g>
<g id="#8ea25eff">
<path fill="#8ea25e" opacity="1.00" d=" M 0.00 55.50 L 0.51 56.60 C 1.24 64.41 1.22 72.31 0.49 80.12 L 0.00 78.89 L 0.00 55.50 Z" />
</g>
<g id="#94b705ff">
<path fill="#94b705" opacity="1.00" d=" M 98.37 72.80 C 96.21 67.79 94.11 61.94 96.58 56.64 C 98.62 61.75 99.96 67.37 98.37 72.80 Z" />
</g>
<g id="#566e2eff">
<path fill="#566e2e" opacity="1.00" d=" M 110.52 62.94 C 111.17 61.17 111.84 59.41 112.56 57.66 C 112.80 59.06 113.03 60.46 113.26 61.86 C 112.57 62.13 111.20 62.67 110.52 62.94 Z" />
</g>
<g id="#638027ff">
<path fill="#638027" opacity="1.00" d=" M 118.33 57.49 C 120.09 60.26 120.28 63.53 119.71 66.70 C 116.72 64.48 117.99 60.57 118.33 57.49 Z" />
</g>
<g id="#97af02ff">
<path fill="#97af02" opacity="1.00" d=" M 4.48 63.90 C 5.71 62.94 6.94 61.98 8.17 61.02 C 8.22 61.84 8.32 63.49 8.37 64.32 C 7.78 69.77 6.57 75.13 5.17 80.42 C 4.24 74.96 4.71 69.41 4.48 63.90 Z" />
</g>
<g id="#66940bff">
<path fill="#66940b" opacity="1.00" d=" M 8.37 64.32 C 8.86 63.13 9.40 61.96 9.92 60.79 C 9.84 67.87 7.59 74.82 8.33 81.92 C 8.68 85.46 11.19 88.20 13.14 90.99 C 12.05 92.35 10.96 93.71 9.89 95.08 C 10.10 96.60 10.32 98.13 10.52 99.66 C 7.76 101.86 8.78 105.21 9.59 108.11 C 10.70 107.61 11.80 107.11 12.91 106.61 C 12.58 105.36 12.26 104.11 11.90 102.87 C 14.81 104.89 16.12 108.19 16.38 111.63 C 13.66 111.12 10.89 111.03 8.19 111.67 C 6.91 101.30 3.90 90.96 5.17 80.42 C 6.57 75.13 7.78 69.77 8.37 64.32 Z" />
</g>
<g id="#0e3206ff">
<path fill="#0e3206" opacity="1.00" d=" M 87.49 70.84 C 89.52 69.65 91.58 68.50 93.65 67.39 C 93.85 68.94 94.05 70.48 94.25 72.03 C 92.42 72.45 90.59 72.88 88.76 73.30 C 88.44 72.69 87.81 71.46 87.49 70.84 Z" />
</g>
<g id="#607826ff">
<path fill="#607826" opacity="1.00" d=" M 121.00 82.84 C 117.56 79.54 119.98 75.15 121.63 71.65 C 122.14 75.39 122.10 79.20 121.00 82.84 Z" />
</g>
<g id="#5c7f31ff">
<path fill="#5c7f31" opacity="1.00" d=" M 10.06 76.50 C 12.44 77.25 13.04 79.55 13.53 81.72 C 12.81 82.08 11.37 82.80 10.65 83.16 C 10.37 80.95 10.17 78.73 10.06 76.50 Z" />
</g>
<g id="#132e03ff">
<path fill="#132e03" opacity="1.00" d=" M 90.38 76.47 C 91.95 76.62 93.53 76.77 95.10 76.93 C 94.96 78.22 94.82 79.50 94.68 80.79 C 93.48 80.85 92.28 80.91 91.08 80.97 C 90.74 79.76 90.41 78.55 90.11 77.34 L 90.38 76.47 Z" />
</g>
<g id="#8eb905ff">
<path fill="#8eb905" opacity="1.00" d=" M 19.67 94.89 C 21.25 95.17 22.83 95.49 24.42 95.79 C 24.17 97.40 23.91 99.01 23.64 100.62 C 21.89 99.03 20.57 97.07 19.67 94.89 Z" />
</g>
<g id="#e1d50cff">
<path fill="#e1d50c" opacity="1.00" d=" M 111.57 99.55 C 114.07 96.46 119.21 94.83 122.57 97.47 C 128.34 101.75 129.13 110.46 126.11 116.56 C 124.04 113.23 123.85 109.22 122.31 105.70 C 121.15 102.93 116.94 103.16 115.65 105.70 C 112.60 110.84 111.29 116.77 109.45 122.41 C 108.17 126.50 109.37 132.72 114.31 133.52 C 114.08 130.45 112.71 127.70 111.34 125.01 C 114.33 119.37 115.26 112.73 119.33 107.67 C 120.96 112.77 122.07 118.03 123.85 123.10 C 122.02 123.62 120.18 124.11 118.35 124.60 C 119.35 126.68 120.87 128.67 120.91 131.07 C 121.29 136.39 116.79 140.88 112.00 142.36 C 111.03 141.92 110.19 141.30 109.47 140.53 C 104.19 134.43 102.23 125.53 104.95 117.86 C 107.05 111.74 107.38 104.77 111.57 99.55 Z" />
</g>
<g id="#91bb07ff">
<path fill="#91bb07" opacity="1.00" d=" M 9.59 108.11 C 8.78 105.21 7.76 101.86 10.52 99.66 C 10.86 100.46 11.55 102.07 11.90 102.87 C 12.26 104.11 12.58 105.36 12.91 106.61 C 11.80 107.11 10.70 107.61 9.59 108.11 Z" />
</g>
<g id="#9eb402ff">
<path fill="#9eb402" opacity="1.00" d=" M 98.80 104.11 C 98.95 101.83 101.55 101.36 103.09 100.23 C 104.00 104.43 103.34 108.70 101.72 112.64 C 99.43 110.43 97.87 107.34 98.80 104.11 Z" />
</g>
<g id="#193108ff">
<path fill="#193108" opacity="1.00" d=" M 89.71 110.81 C 90.81 106.79 93.93 103.93 98.08 103.33 C 96.90 108.01 95.33 112.58 93.86 117.18 C 93.18 117.18 91.83 117.19 91.16 117.19 C 90.61 115.35 90.04 113.52 89.54 111.67 L 89.71 110.81 Z" />
</g>
<g id="#8e9f49ff">
<path fill="#8e9f49" opacity="1.00" d=" M 130.37 104.06 L 131.00 105.19 L 131.00 113.18 L 130.49 114.26 C 130.24 110.87 130.19 107.46 130.37 104.06 Z" />
</g>
<g id="#91b710ff">
<path fill="#91b710" opacity="1.00" d=" M 21.77 107.01 C 22.30 107.03 23.36 107.08 23.89 107.10 C 23.94 109.41 23.99 111.72 24.04 114.03 C 23.45 113.73 22.29 113.13 21.70 112.83 C 21.72 110.89 21.75 108.95 21.77 107.01 Z" />
</g>
<g id="#ccdb17ff">
<path fill="#ccdb17" opacity="1.00" d=" M 86.31 113.51 C 86.90 111.35 87.49 109.19 88.10 107.04 C 88.55 108.87 89.00 110.71 89.37 112.56 L 89.22 113.45 C 88.49 113.46 87.04 113.49 86.31 113.51 Z" />
</g>
<g id="#729b0bff">
<path fill="#729b0b" opacity="1.00" d=" M 98.72 123.83 C 99.51 129.76 100.75 135.63 103.45 141.02 C 101.90 140.42 100.37 139.80 98.85 139.17 C 97.49 140.21 96.13 141.25 94.75 142.27 C 93.91 135.78 97.17 129.93 98.72 123.83 Z" />
</g>
<g id="#729413ff">
<path fill="#729413" opacity="1.00" d=" M 90.77 141.79 C 92.96 144.17 94.80 146.85 96.28 149.73 C 94.63 150.08 92.98 150.41 91.34 150.75 C 90.96 147.77 90.86 144.78 90.77 141.79 Z" />
</g>
<g id="#163307ff">
<path fill="#163307" opacity="1.00" d=" M 22.83 143.82 C 25.04 143.76 27.26 143.74 29.48 143.80 C 28.77 146.79 27.25 149.47 24.18 150.46 C 23.68 148.26 23.22 146.05 22.83 143.82 Z" />
</g>
<g id="#647639ff">
<path fill="#647639" opacity="1.00" d=" M 98.21 144.40 C 99.84 143.88 100.39 144.43 99.86 146.06 C 98.23 146.59 97.68 146.03 98.21 144.40 Z" />
</g>
<g id="#455928ff">
<path fill="#455928" opacity="1.00" d=" M 105.41 144.41 C 106.62 143.06 108.77 145.16 107.41 146.39 C 106.20 147.73 104.04 145.64 105.41 144.41 Z" />
</g>
<g id="#6e9324ff">
<path fill="#6e9324" opacity="1.00" d=" M 98.10 158.07 C 98.46 154.00 99.58 149.61 103.40 147.42 C 103.00 149.83 102.35 152.18 101.67 154.52 C 100.41 158.83 100.95 163.37 100.59 167.79 C 96.92 165.91 97.85 161.44 98.10 158.07 Z" />
</g>
<g id="#64773bff">
<path fill="#64773b" opacity="1.00" d=" M 105.08 156.57 C 106.52 156.71 106.77 157.35 105.84 158.50 C 104.40 158.36 104.15 157.71 105.08 156.57 Z" />
</g>
<g id="#6d970aff">
<path fill="#6d970a" opacity="1.00" d=" M 89.32 159.53 C 90.74 162.48 90.73 166.37 93.60 168.41 C 95.81 170.40 99.22 172.23 98.81 175.71 C 97.79 177.20 95.36 177.32 94.46 175.65 C 92.23 172.68 89.72 167.73 85.20 169.21 C 84.48 174.42 89.79 176.69 93.81 178.11 C 92.33 179.47 90.81 180.80 89.26 182.09 C 87.14 179.85 84.97 177.64 82.45 175.86 C 83.39 172.39 83.85 168.71 85.92 165.67 C 86.66 164.31 87.37 162.94 88.12 161.59 C 88.42 161.08 89.02 160.05 89.32 159.53 Z" />
</g>
<g id="#bed622ff">
<path fill="#bed622" opacity="1.00" d=" M 83.87 165.40 C 85.30 164.14 86.73 162.89 88.12 161.59 C 87.37 162.94 86.66 164.31 85.92 165.67 C 85.41 165.60 84.38 165.47 83.87 165.40 Z" />
</g>
<g id="#65812aff">
<path fill="#65812a" opacity="1.00" d=" M 99.73 174.33 C 100.24 172.32 100.65 169.62 103.31 169.61 C 102.77 171.61 102.43 174.39 99.73 174.33 Z" />
</g>
<g id="#d4d715ff">
<path fill="#d4d715" opacity="1.00" d=" M 75.70 174.24 C 77.23 174.27 78.75 174.30 80.28 174.35 C 79.40 176.30 79.77 179.67 77.16 180.17 C 76.53 178.23 76.12 176.23 75.70 174.24 Z" />
</g>
<g id="#659711ff">
<path fill="#659711" opacity="1.00" d=" M 72.29 192.27 C 73.38 185.90 78.47 181.53 82.17 176.62 C 81.38 181.15 79.40 185.30 77.39 189.39 C 75.17 193.88 74.49 198.92 74.64 203.88 C 76.10 203.82 77.56 203.76 79.03 203.71 C 80.05 198.63 80.31 193.30 82.64 188.57 C 83.96 193.45 84.38 198.64 83.48 203.63 C 82.42 207.03 80.12 209.85 78.44 212.94 C 76.94 210.98 75.72 208.72 73.75 207.17 C 72.18 206.33 70.28 208.09 71.55 209.59 C 73.85 214.20 75.98 220.82 71.19 224.65 C 70.69 221.57 70.54 218.45 70.47 215.33 C 69.66 215.46 68.85 215.58 68.04 215.72 C 71.22 208.28 70.89 200.09 72.29 192.27 Z" />
</g>
<g id="#8ab207ff">
<path fill="#8ab207" opacity="1.00" d=" M 20.82 180.27 C 20.87 179.68 20.95 178.50 20.99 177.91 C 22.03 180.94 23.03 183.98 24.01 187.03 C 27.59 186.79 31.18 186.96 34.73 187.49 C 32.65 188.76 30.46 189.91 28.06 190.43 C 22.69 190.61 19.77 185.04 20.82 180.27 Z" />
</g>
<g id="#e2d510ff">
<path fill="#e2d510" opacity="1.00" d=" M 98.31 180.31 C 101.73 180.00 104.61 182.96 106.35 185.63 C 108.81 191.39 106.62 197.80 104.14 203.17 C 102.51 207.25 99.50 210.52 97.12 214.15 C 94.12 218.63 93.91 224.40 90.75 228.79 C 87.58 231.63 82.70 227.73 83.00 224.03 C 82.98 214.24 86.80 204.94 87.53 195.22 C 88.19 188.85 92.29 182.72 98.31 180.31 M 92.14 196.17 C 91.23 200.43 91.92 204.86 91.01 209.12 C 90.25 212.56 86.96 215.71 88.72 219.39 C 90.51 217.57 92.51 215.67 92.93 213.02 C 93.91 207.89 93.48 202.62 94.30 197.47 C 96.54 197.16 98.79 196.88 101.03 196.54 C 101.12 193.87 100.67 191.23 99.50 188.81 C 96.39 190.40 93.15 192.62 92.14 196.17 Z" />
</g>
<g id="#0b1104ff">
<path fill="#0b1104" opacity="1.00" d=" M 92.14 196.17 C 93.15 192.62 96.39 190.40 99.50 188.81 C 100.67 191.23 101.12 193.87 101.03 196.54 C 98.79 196.88 96.54 197.16 94.30 197.47 C 93.48 202.62 93.91 207.89 92.93 213.02 C 92.51 215.67 90.51 217.57 88.72 219.39 C 86.96 215.71 90.25 212.56 91.01 209.12 C 91.92 204.86 91.23 200.43 92.14 196.17 Z" />
</g>
<g id="#e3d70eff">
<path fill="#e3d70e" opacity="1.00" d=" M 23.33 196.36 C 26.30 192.59 31.82 194.39 34.62 197.39 C 37.12 199.52 37.50 202.93 37.79 205.99 C 38.17 210.84 41.27 215.04 41.29 219.97 C 41.37 223.85 42.39 228.32 39.50 231.50 C 37.79 233.59 35.58 237.02 32.42 235.75 C 28.74 232.83 27.53 228.02 26.06 223.78 C 24.68 219.82 23.40 215.43 25.23 211.37 C 29.18 215.45 32.59 220.08 34.92 225.28 C 36.83 222.33 36.97 218.16 34.42 215.53 C 31.64 212.46 28.60 209.54 26.84 205.72 C 28.65 205.43 30.46 205.19 32.25 204.81 C 33.27 202.82 31.17 201.66 30.12 200.31 C 28.02 201.63 25.96 203.03 23.85 204.34 C 22.54 201.95 20.95 198.65 23.33 196.36 Z" />
</g>
<g id="#5a6b30ff">
<path fill="#5a6b30" opacity="1.00" d=" M 81.88 228.93 C 82.54 229.31 83.85 230.08 84.51 230.46 C 83.46 231.45 82.39 232.40 81.32 233.37 C 81.49 231.88 81.68 230.40 81.88 228.93 Z" />
</g>
<g id="#66970cff">
<path fill="#66970c" opacity="1.00" d=" M 71.93 229.83 C 73.56 229.80 75.19 229.80 76.82 229.82 C 77.57 234.19 77.20 238.60 76.57 242.95 C 77.31 243.34 78.80 244.12 79.54 244.51 C 80.11 242.02 80.53 239.49 81.27 237.04 C 81.73 236.94 82.65 236.72 83.10 236.62 C 84.40 241.11 82.98 245.69 82.14 250.11 C 81.06 255.08 80.63 260.30 78.14 264.84 C 76.23 259.35 77.57 253.43 76.04 247.88 C 74.90 243.71 74.20 239.45 73.64 235.17 C 72.50 235.05 71.37 234.94 70.23 234.83 C 71.75 234.33 73.28 233.83 74.81 233.34 C 73.84 232.17 72.88 231.01 71.93 229.83 Z" />
</g>
<g id="#567534ff">
<path fill="#567534" opacity="1.00" d=" M 39.18 238.16 C 41.21 237.40 41.56 240.66 39.72 241.04 C 37.66 241.82 37.30 238.51 39.18 238.16 Z" />
</g>
<g id="#6e9b0cff">
<path fill="#6e9b0c" opacity="1.00" d=" M 35.06 241.17 C 38.11 245.61 40.35 251.03 39.62 256.50 C 38.55 257.96 37.08 259.05 35.75 260.24 C 34.26 254.02 33.62 247.46 35.06 241.17 Z" />
</g>
<g id="#6f9e0bff">
<path fill="#6f9e0b" opacity="1.00" d=" M 62.46 263.48 C 63.83 259.64 65.14 255.76 66.92 252.08 C 66.72 255.45 66.32 259.50 69.65 261.54 C 70.59 258.21 71.17 254.78 72.43 251.55 C 73.33 254.95 74.26 258.63 73.09 262.09 C 71.84 265.60 70.13 268.94 68.46 272.27 C 65.93 270.13 64.83 267.03 64.39 263.83 C 63.91 263.75 62.94 263.57 62.46 263.48 Z" />
</g>
<g id="#cad912ff">
<path fill="#cad912" opacity="1.00" d=" M 57.41 263.25 C 58.91 265.21 59.06 267.69 59.21 270.06 C 58.63 269.73 57.48 269.09 56.91 268.76 C 57.06 266.92 57.22 265.08 57.41 263.25 Z" />
</g>
<g id="#628e23ff">
<path fill="#628e23" opacity="1.00" d=" M 73.86 273.86 C 73.69 271.08 74.28 268.47 77.08 267.35 C 77.10 269.99 76.96 273.09 73.86 273.86 Z" />
</g>
<g id="#6a9109ff">
<path fill="#6a9109" opacity="1.00" d=" M 61.89 268.95 C 65.31 271.96 68.21 275.62 70.07 279.78 C 71.06 283.41 70.08 287.21 69.97 290.90 C 69.43 291.17 68.36 291.70 67.83 291.96 C 67.46 288.65 67.43 285.32 67.19 282.01 C 66.56 277.26 63.65 273.30 61.89 268.95 Z" />
</g>
<g id="#719728ff">
<path fill="#719728" opacity="1.00" d=" M 38.35 271.35 C 40.80 273.74 42.75 277.01 41.29 280.47 C 40.88 282.08 40.43 283.67 40.06 285.30 C 37.92 280.98 37.68 276.05 38.35 271.35 Z" />
</g>
<g id="#e0d60aff">
<path fill="#e0d60a" opacity="1.00" d=" M 59.75 276.43 C 61.41 280.54 62.47 284.87 62.83 289.29 C 62.92 291.10 63.04 292.92 63.17 294.74 C 63.02 299.30 62.31 303.82 61.43 308.30 C 57.80 298.08 57.94 286.99 59.75 276.43 Z" />
</g>
<g id="#649707ff">
<path fill="#649707" opacity="1.00" d=" M 74.74 278.31 C 76.70 282.24 76.13 286.74 76.15 290.99 C 75.98 296.34 76.35 301.70 76.10 307.05 C 76.01 311.62 73.61 315.63 72.30 319.90 C 71.41 318.83 70.51 317.75 69.61 316.70 C 67.40 319.93 65.83 323.52 64.13 327.02 C 66.61 316.35 64.51 305.40 63.17 294.74 C 63.04 292.92 62.92 291.10 62.83 289.29 C 63.16 288.03 63.51 286.79 63.89 285.55 C 66.06 294.64 64.38 304.67 69.05 313.10 C 70.59 310.73 71.95 308.18 72.43 305.37 C 74.12 296.45 73.77 287.30 74.74 278.31 Z" />
</g>
<g id="#9cae0aff">
<path fill="#9cae0a" opacity="1.00" d=" M 46.28 291.54 C 47.43 290.83 48.59 290.13 49.75 289.44 C 50.56 291.27 51.51 293.06 51.91 295.04 C 51.82 297.38 50.86 299.58 50.16 301.79 C 48.97 299.10 47.87 296.38 46.95 293.59 C 46.78 293.08 46.45 292.05 46.28 291.54 Z" />
</g>
<g id="#7ba014ff">
<path fill="#7ba014" opacity="1.00" d=" M 45.03 305.75 C 45.61 306.81 46.17 307.88 46.76 308.93 C 47.94 311.03 49.36 312.99 50.60 315.06 C 49.22 315.34 47.84 315.63 46.47 315.94 C 46.94 317.22 47.42 318.51 47.91 319.80 C 49.16 318.88 50.41 317.95 51.65 317.03 C 51.65 318.37 51.59 319.72 51.33 321.04 C 51.08 323.37 48.32 323.96 46.78 325.28 C 45.13 318.93 43.94 312.31 45.03 305.75 Z" />
</g>
<g id="#152b00ff">
<path fill="#152b00" opacity="1.00" d=" M 46.47 315.94 C 47.84 315.63 49.22 315.34 50.60 315.06 C 50.86 315.55 51.39 316.54 51.65 317.03 C 50.41 317.95 49.16 318.88 47.91 319.80 C 47.42 318.51 46.94 317.22 46.47 315.94 Z" />
</g>
<g id="#617b2cff">
<path fill="#617b2c" opacity="1.00" d=" M 77.43 316.77 C 78.25 317.18 79.89 318.00 80.70 318.41 C 79.96 319.76 79.25 321.20 77.96 322.13 C 77.46 320.39 77.42 318.57 77.43 316.77 Z" />
</g>
<g id="#cfd610ff">
<path fill="#cfd610" opacity="1.00" d=" M 61.34 321.29 C 61.80 323.42 62.85 325.66 62.09 327.85 C 61.39 329.48 60.23 330.84 59.18 332.24 C 59.21 328.49 59.92 324.77 61.34 321.29 Z" />
</g>
<g id="#e0d60dff">
<path fill="#e0d60d" opacity="1.00" d=" M 72.40 326.29 C 75.72 324.84 79.34 327.59 80.29 330.76 C 81.59 335.35 81.71 340.76 78.89 344.84 C 73.97 352.14 66.66 357.43 61.80 364.78 C 58.55 369.32 56.24 374.52 52.47 378.67 C 50.30 381.11 46.00 378.38 47.36 375.35 C 49.79 367.54 51.72 359.53 55.06 352.03 C 58.74 343.57 63.48 335.51 69.54 328.53 C 70.37 327.64 71.28 326.80 72.40 326.29 M 62.91 347.85 C 61.14 352.12 58.79 356.09 56.75 360.22 C 64.12 356.59 65.82 347.77 71.00 342.02 C 73.15 340.00 73.56 337.16 73.06 334.35 C 69.84 338.98 66.36 343.41 62.91 347.85 Z" />
</g>
<g id="#111102ff">
<path fill="#111102" opacity="1.00" d=" M 62.91 347.85 C 66.36 343.41 69.84 338.98 73.06 334.35 C 73.56 337.16 73.15 340.00 71.00 342.02 C 65.82 347.77 64.12 356.59 56.75 360.22 C 58.79 356.09 61.14 352.12 62.91 347.85 Z" />
</g>
</svg>
