<?xml version="1.0" encoding="UTF-8" ?>
<!DOCTYPE svg PUBLIC "-//W3C//DTD SVG 1.1//EN" "http://www.w3.org/Graphics/SVG/1.1/DTD/svg11.dtd">
<svg width="133pt" height="379pt" viewBox="0 0 133 379" version="1.1" xmlns="http://www.w3.org/2000/svg">
<g id="#ffffffff">
<path fill="#ffffff" opacity="1.00" d=" M 0.00 0.00 L 133.00 0.00 L 133.00 379.00 L 0.00 379.00 L 0.00 0.00 M 45.16 22.45 C 45.22 84.67 45.16 146.88 45.19 209.09 C 45.27 212.34 43.77 215.30 43.03 218.40 C 39.40 213.87 34.52 209.94 28.59 209.17 C 20.13 207.43 11.05 211.17 6.19 218.29 C 0.90 225.70 1.03 236.28 6.26 243.69 C 12.41 252.77 25.50 255.74 35.04 250.46 C 39.26 248.43 42.00 244.54 44.81 240.96 C 44.80 246.33 43.61 251.61 43.46 256.98 C 42.63 279.03 43.47 301.19 46.81 323.02 C 38.46 326.56 35.68 336.85 37.29 345.10 C 38.04 351.41 42.36 357.93 49.17 358.53 C 48.13 369.13 58.80 378.58 69.15 376.56 C 77.65 375.43 84.48 367.29 83.86 358.68 C 86.54 358.12 89.39 357.42 91.21 355.21 C 96.55 349.11 97.21 339.99 94.68 332.54 C 93.32 328.42 90.21 324.97 86.10 323.49 C 89.55 301.16 90.41 278.49 89.47 255.94 C 89.23 250.88 88.20 245.90 88.13 240.83 C 90.52 243.79 92.63 247.10 95.88 249.21 C 101.85 253.46 109.85 254.00 116.67 251.69 C 123.17 248.87 128.71 243.15 130.04 236.04 C 132.25 228.17 129.18 219.23 122.91 214.07 C 117.12 208.82 108.43 207.51 101.12 209.97 C 96.56 211.50 92.82 214.75 89.96 218.55 C 89.05 215.42 87.66 212.33 87.80 209.00 C 87.85 146.82 87.78 84.63 87.84 22.45 C 79.70 16.64 72.20 9.64 66.56 1.33 C 60.73 9.53 53.35 16.63 45.16 22.45 Z" />
</g>
<g id="#000000ff">
<path fill="#000000" opacity="1.00" d=" M 45.16 22.45 C 53.35 16.63 60.73 9.53 66.56 1.33 C 72.20 9.64 79.70 16.64 87.84 22.45 C 87.78 84.63 87.85 146.82 87.80 209.00 C 87.66 212.33 89.05 215.42 89.96 218.55 C 92.82 214.75 96.56 211.50 101.12 209.97 C 108.43 207.51 117.12 208.82 122.91 214.07 C 129.18 219.23 132.25 228.17 130.04 236.04 C 128.71 243.15 123.17 248.87 116.67 251.69 C 109.85 254.00 101.85 253.46 95.88 249.21 C 92.63 247.10 90.52 243.79 88.13 240.83 C 88.20 245.90 89.23 250.88 89.47 255.94 C 90.41 278.49 89.55 301.16 86.10 323.49 C 90.21 324.97 93.32 328.42 94.68 332.54 C 97.21 339.99 96.55 349.11 91.21 355.21 C 89.39 357.42 86.54 358.12 83.86 358.68 C 84.48 367.29 77.65 375.43 69.15 376.56 C 58.80 378.58 48.13 369.13 49.17 358.53 C 42.36 357.93 38.04 351.41 37.29 345.10 C 35.68 336.85 38.46 326.56 46.81 323.02 C 43.47 301.19 42.63 279.03 43.46 256.98 C 43.61 251.61 44.80 246.33 44.81 240.96 C 42.00 244.54 39.26 248.43 35.04 250.46 C 25.50 255.74 12.41 252.77 6.26 243.69 C 1.03 236.28 0.90 225.70 6.19 218.29 C 11.05 211.17 20.13 207.43 28.59 209.17 C 34.52 209.94 39.40 213.87 43.03 218.40 C 43.77 215.30 45.27 212.34 45.19 209.09 C 45.16 146.88 45.22 84.67 45.16 22.45 M 47.61 23.87 C 47.69 84.86 47.52 145.85 47.70 206.84 C 51.67 201.51 56.20 196.67 60.80 191.89 C 62.68 189.55 65.65 187.35 65.29 183.99 C 65.20 125.20 65.36 66.41 65.21 7.61 C 59.81 13.51 54.05 19.12 47.61 23.87 M 67.81 7.57 C 67.62 64.70 67.81 121.84 67.72 178.97 C 67.71 181.39 67.59 183.81 67.86 186.22 C 68.59 187.98 70.07 189.29 71.25 190.75 C 71.44 133.51 71.25 76.26 71.34 19.01 C 71.34 16.64 71.46 14.26 71.19 11.90 C 70.53 10.15 68.99 8.95 67.81 7.57 M 73.82 14.00 C 73.73 71.35 73.83 128.69 73.77 186.04 C 73.85 188.63 73.44 191.33 74.18 193.85 C 75.35 195.70 77.09 197.09 78.66 198.60 C 78.81 138.53 78.67 78.46 78.73 18.38 C 77.09 16.92 75.46 15.45 73.82 14.00 M 81.33 20.79 C 81.39 77.87 81.34 134.96 81.36 192.05 C 81.40 195.26 81.13 198.50 81.52 201.71 C 82.30 203.73 83.95 205.26 85.26 206.94 C 85.52 145.93 85.25 84.91 85.39 23.89 C 84.04 22.85 82.69 21.82 81.33 20.79 M 65.15 194.11 C 60.31 199.05 55.38 204.07 51.99 210.16 C 47.24 218.42 45.92 228.74 48.93 237.83 C 50.13 241.40 52.78 244.96 56.84 245.24 C 59.76 244.39 60.23 240.94 58.41 238.79 C 53.41 238.08 53.07 232.02 52.66 228.03 C 51.82 216.36 59.23 206.50 66.46 198.18 C 73.77 206.44 81.15 216.35 80.34 228.00 C 79.93 231.99 79.61 238.07 74.60 238.79 C 72.81 240.89 73.19 244.30 76.06 245.17 C 80.09 245.16 82.77 241.47 84.01 238.02 C 86.37 230.99 86.13 223.20 83.76 216.21 C 80.54 207.00 73.62 199.76 66.74 193.12 C 66.34 193.37 65.55 193.86 65.15 194.11 M 65.23 207.32 C 62.36 208.78 61.21 212.18 60.37 215.08 C 59.04 221.53 59.26 229.11 63.69 234.37 C 64.83 235.98 67.49 236.21 68.88 234.83 C 71.46 232.28 72.76 228.66 72.80 225.07 C 72.95 219.89 73.49 214.13 70.29 209.67 C 69.34 207.86 67.28 206.61 65.23 207.32 M 22.11 214.11 C 13.62 215.13 6.76 223.38 7.56 231.95 C 7.81 240.42 15.49 247.96 23.99 247.86 C 33.16 248.54 41.77 240.19 41.48 231.03 C 41.98 221.04 31.92 212.40 22.11 214.11 M 102.63 214.91 C 96.54 217.34 91.61 223.28 91.53 230.00 C 90.62 239.54 99.45 248.57 109.01 247.87 C 118.93 248.02 127.30 237.78 125.18 228.08 C 123.95 217.88 112.11 211.21 102.63 214.91 M 63.32 238.30 C 61.85 239.30 60.89 241.25 61.59 243.01 C 63.15 247.40 71.23 246.88 71.57 241.99 C 71.81 237.96 66.28 235.95 63.32 238.30 M 84.62 249.68 C 84.63 249.26 84.67 248.42 84.69 248.00 L 83.93 247.57 C 81.74 247.46 82.92 250.97 84.62 249.68 M 48.54 248.04 C 48.39 249.87 48.24 251.87 49.79 253.20 C 60.95 267.01 72.46 280.56 84.79 293.33 C 84.77 291.38 85.06 289.12 83.27 287.81 C 71.07 275.10 59.87 261.51 48.54 248.04 M 54.74 249.18 C 64.50 261.23 74.55 273.06 85.33 284.21 C 85.13 279.23 79.45 277.30 77.36 273.18 L 78.11 271.83 C 81.10 273.59 82.89 276.78 85.69 278.82 C 84.58 274.25 79.30 272.43 77.73 268.07 L 79.16 267.49 C 81.45 269.42 83.32 271.77 85.39 273.92 C 85.38 273.41 85.36 272.37 85.36 271.86 C 82.89 269.34 80.20 266.98 78.28 264.00 C 78.69 263.79 79.50 263.39 79.90 263.18 C 81.98 264.97 83.66 267.19 85.91 268.79 C 85.00 266.62 83.58 264.73 81.95 263.05 C 78.38 259.35 75.06 255.43 71.78 251.47 C 65.93 253.11 60.26 250.92 54.74 249.18 M 75.40 249.76 C 78.59 253.60 81.96 257.28 85.27 261.02 C 85.86 255.94 81.41 252.61 78.20 249.46 C 77.50 249.54 76.10 249.69 75.40 249.76 M 47.90 256.99 C 49.06 261.96 53.90 264.85 56.55 269.01 L 55.87 270.33 C 52.37 268.47 50.41 264.79 47.77 261.97 C 49.91 266.42 53.93 269.48 56.73 273.44 C 56.70 274.28 56.25 274.77 55.39 274.90 C 52.46 272.15 50.09 268.87 47.37 265.93 C 48.76 269.05 52.31 271.06 53.09 274.27 L 51.99 274.93 C 50.28 273.38 48.78 271.63 47.04 270.12 C 47.74 271.37 48.51 272.57 49.40 273.69 C 57.72 284.14 66.48 294.21 75.33 304.21 C 75.32 303.41 75.30 301.80 75.29 301.00 C 79.23 301.80 80.67 306.28 84.07 308.09 C 82.27 304.65 78.98 302.41 76.48 299.54 C 75.68 298.72 74.36 297.24 75.97 296.32 C 79.02 298.54 81.13 301.79 84.27 303.90 C 82.39 300.92 79.45 298.84 77.37 296.04 L 77.88 294.85 C 80.66 295.17 82.11 299.07 84.88 300.24 C 83.47 297.47 81.24 295.29 79.14 293.06 C 68.38 281.34 57.93 269.33 47.90 256.99 M 47.61 277.82 C 47.82 279.59 47.47 281.69 48.92 283.06 C 59.27 296.13 70.55 308.42 81.61 320.89 C 81.86 320.08 82.36 318.45 82.61 317.63 C 70.34 304.90 58.90 291.41 47.61 277.82 M 48.19 288.11 C 48.20 288.81 48.23 290.21 48.24 290.92 C 50.97 294.28 54.12 297.31 56.57 300.89 L 56.03 302.20 C 52.61 300.45 50.92 296.72 47.93 294.43 C 49.90 298.60 53.72 301.38 56.33 305.07 L 56.33 306.17 L 54.99 306.51 C 52.63 304.34 50.87 301.57 48.23 299.72 C 49.97 303.42 52.97 306.28 55.50 309.44 C 60.04 314.48 63.91 320.19 69.14 324.57 C 69.96 323.89 70.78 323.21 71.61 322.53 C 73.29 324.37 74.87 326.42 77.20 327.49 C 75.49 324.99 72.84 323.20 71.48 320.47 C 71.72 320.09 72.20 319.32 72.44 318.93 C 74.69 321.21 76.75 323.71 79.37 325.60 C 79.14 323.01 76.83 321.45 75.33 319.59 C 66.01 309.34 56.69 299.04 48.19 288.11 M 75.58 304.92 C 78.36 307.25 80.63 310.12 83.38 312.48 C 82.66 308.65 78.20 307.26 76.89 303.67 C 76.45 304.08 76.02 304.50 75.58 304.92 M 49.41 308.12 C 49.75 310.08 49.57 312.34 50.95 313.96 C 53.93 317.72 57.17 321.26 60.21 324.98 C 60.91 324.79 62.31 324.39 63.01 324.20 C 58.40 318.91 53.86 313.55 49.41 308.12 M 50.83 320.26 C 50.81 322.61 52.23 324.10 54.21 325.01 C 55.07 326.27 56.27 327.16 57.58 327.90 C 55.69 325.06 53.19 322.69 50.83 320.26 M 44.19 331.23 C 41.82 335.07 41.91 339.76 42.24 344.09 C 42.55 348.48 45.00 352.67 48.96 354.73 C 51.04 353.29 54.24 351.64 53.73 348.60 C 53.02 343.37 52.86 337.96 54.74 332.94 C 53.49 330.88 52.41 328.43 50.06 327.41 C 47.33 326.60 45.34 329.13 44.19 331.23 M 63.39 328.56 C 59.68 331.89 58.14 337.12 58.25 341.99 C 58.10 346.75 59.32 351.81 62.58 355.41 C 64.24 357.46 67.74 357.54 69.44 355.49 C 73.07 351.65 74.14 346.05 73.88 340.93 C 73.67 336.37 72.25 331.46 68.58 328.47 C 67.14 327.22 64.77 327.23 63.39 328.56 M 82.15 328.07 C 79.78 329.92 77.64 332.94 78.36 336.10 C 78.93 339.54 79.20 343.05 78.63 346.51 C 77.92 349.72 80.23 352.90 82.97 354.35 C 85.01 355.12 86.78 353.43 87.93 351.95 C 91.62 347.05 91.09 340.46 90.27 334.74 C 89.20 331.43 86.37 325.89 82.15 328.07 M 54.62 364.53 C 56.47 368.65 60.52 371.58 64.97 372.23 C 72.06 373.16 79.39 367.19 79.37 359.91 C 79.99 357.44 77.70 356.03 76.27 354.48 C 73.77 357.77 70.53 361.45 65.98 361.16 C 61.70 361.41 58.52 358.10 56.22 354.92 C 52.66 356.83 53.37 361.33 54.62 364.53 Z" />
<path fill="#000000" opacity="1.00" d=" M 62.16 213.37 C 63.18 211.36 64.83 208.12 67.64 209.35 C 71.92 211.35 72.33 216.88 72.36 221.02 C 72.23 225.50 72.50 231.49 67.84 233.89 C 66.31 234.28 65.64 232.83 64.97 231.80 C 69.87 231.16 70.07 225.80 70.34 221.92 C 70.33 218.63 69.98 214.92 67.65 212.38 C 65.52 211.02 64.46 215.12 62.16 213.37 Z" />
<path fill="#000000" opacity="1.00" d=" M 17.05 223.29 C 17.14 219.11 20.63 215.14 25.02 215.64 C 29.17 215.69 31.64 219.68 32.13 223.40 C 37.12 223.41 41.30 228.69 39.31 233.48 C 38.30 236.60 35.19 238.09 32.15 238.47 C 31.65 242.15 29.16 246.20 25.02 246.17 C 20.67 246.68 17.02 242.77 17.08 238.55 C 14.50 237.98 11.54 237.28 10.20 234.73 C 8.72 231.87 8.91 227.72 11.54 225.58 C 12.99 224.08 15.13 223.79 17.05 223.29 M 20.14 224.28 C 22.96 223.60 25.85 223.65 28.69 224.20 C 28.54 222.19 28.08 219.87 25.91 219.14 C 22.69 217.47 20.02 221.36 20.14 224.28 M 12.43 230.98 C 12.23 233.96 15.42 234.84 17.72 235.28 C 17.38 232.35 17.40 229.41 17.75 226.49 C 15.37 226.89 12.19 227.97 12.43 230.98 M 22.38 227.51 C 20.19 228.65 19.55 231.93 21.48 233.62 C 23.34 235.87 27.43 235.11 28.31 232.30 C 29.88 229.09 25.15 224.99 22.38 227.51 M 31.30 226.56 C 31.75 229.40 31.76 232.29 31.25 235.12 C 33.88 235.13 37.02 233.50 36.51 230.43 C 36.26 227.74 33.52 226.97 31.30 226.56 M 20.06 237.65 C 20.30 240.22 21.84 243.48 24.96 242.88 C 27.73 242.81 28.41 239.80 28.90 237.64 C 25.97 238.12 22.99 238.11 20.06 237.65 Z" />
<path fill="#000000" opacity="1.00" d=" M 100.81 223.40 C 101.37 219.69 103.82 215.64 108.02 215.64 C 112.42 215.17 115.87 219.15 115.96 223.33 C 118.83 223.77 121.95 224.96 123.16 227.83 C 124.11 230.67 123.91 234.41 121.36 236.39 C 119.89 237.78 117.80 238.03 115.93 238.55 C 115.96 242.77 112.31 246.70 107.95 246.17 C 103.80 246.18 101.39 242.13 100.87 238.46 C 97.29 238.22 93.82 235.82 93.30 232.10 C 92.42 227.59 96.40 223.52 100.81 223.40 M 103.92 223.73 C 106.91 223.71 109.90 223.83 112.87 224.19 C 112.80 221.49 111.01 218.48 107.97 218.71 C 105.55 219.28 104.73 221.69 103.92 223.73 M 96.48 231.56 C 96.82 234.23 99.51 234.90 101.76 235.13 C 101.24 232.30 101.25 229.42 101.71 226.58 C 99.06 226.76 95.94 228.46 96.48 231.56 M 106.45 227.45 C 104.61 228.52 103.66 231.16 105.04 232.97 C 106.41 235.67 110.70 235.51 112.09 232.90 C 114.43 229.67 109.57 224.92 106.45 227.45 M 115.26 226.53 C 115.57 229.43 115.59 232.36 115.30 235.27 C 117.60 234.85 120.79 233.93 120.57 230.97 C 120.80 227.96 117.64 226.92 115.26 226.53 M 104.06 237.67 C 104.61 239.79 105.25 242.96 108.09 242.89 C 111.18 243.44 112.69 240.21 112.94 237.66 C 109.99 238.10 107.01 238.10 104.06 237.67 Z" />
<path fill="#000000" opacity="1.00" d=" M 47.80 329.44 C 50.32 329.65 53.82 330.84 53.26 334.02 C 51.42 336.67 48.98 333.50 47.11 332.55 C 47.33 331.51 47.56 330.48 47.80 329.44 Z" />
<path fill="#000000" opacity="1.00" d=" M 82.97 331.84 C 83.66 330.99 84.35 330.14 85.04 329.30 C 87.53 331.16 89.47 333.86 89.65 337.06 C 89.99 341.92 90.41 347.94 86.27 351.42 C 84.76 352.74 82.02 350.35 83.76 348.79 C 87.32 343.79 87.03 336.48 82.97 331.84 Z" />
<path fill="#000000" opacity="1.00" d=" M 64.48 332.59 C 65.33 331.72 66.18 330.86 67.04 330.02 C 69.51 332.44 71.50 335.50 71.66 339.06 C 72.10 344.39 71.91 351.11 66.93 354.37 C 66.05 353.70 65.20 353.01 64.37 352.29 C 69.24 347.04 69.43 337.85 64.48 332.59 Z" />
<path fill="#000000" opacity="1.00" d=" M 74.96 357.06 C 76.42 356.54 77.33 356.97 77.67 358.36 C 77.84 364.22 72.93 369.68 67.07 370.13 C 65.13 370.20 62.12 370.47 61.50 368.08 C 62.78 364.58 67.66 367.48 70.06 365.04 C 73.35 363.58 73.08 359.44 74.96 357.06 Z" />
</g>
<g id="#3e609eff">
<path fill="#3e609e" opacity="1.00" d=" M 47.61 23.87 C 54.05 19.12 59.81 13.51 65.21 7.61 C 65.36 66.41 65.20 125.20 65.29 183.99 C 65.65 187.35 62.68 189.55 60.80 191.89 C 56.20 196.67 51.67 201.51 47.70 206.84 C 47.52 145.85 47.69 84.86 47.61 23.87 Z" />
<path fill="#3e609e" opacity="1.00" d=" M 67.81 7.57 C 68.99 8.95 70.53 10.15 71.19 11.90 C 71.46 14.26 71.34 16.64 71.34 19.01 C 71.25 76.26 71.44 133.51 71.25 190.75 C 70.07 189.29 68.59 187.98 67.86 186.22 C 67.59 183.81 67.71 181.39 67.72 178.97 C 67.81 121.84 67.62 64.70 67.81 7.57 Z" />
<path fill="#3e609e" opacity="1.00" d=" M 73.82 14.00 C 75.46 15.45 77.09 16.92 78.73 18.38 C 78.67 78.46 78.81 138.53 78.66 198.60 C 77.09 197.09 75.35 195.70 74.18 193.85 C 73.44 191.33 73.85 188.63 73.77 186.04 C 73.83 128.69 73.73 71.35 73.82 14.00 Z" />
</g>
<g id="#4064a4ff">
<path fill="#4064a4" opacity="1.00" d=" M 81.33 20.79 C 82.69 21.82 84.04 22.85 85.39 23.89 C 85.25 84.91 85.52 145.93 85.26 206.94 C 83.95 205.26 82.30 203.73 81.52 201.71 C 81.13 198.50 81.40 195.26 81.36 192.05 C 81.34 134.96 81.39 77.87 81.33 20.79 Z" />
</g>
<g id="#fef137ff">
<path fill="#fef137" opacity="1.00" d=" M 65.15 194.11 C 65.55 193.86 66.34 193.37 66.74 193.12 C 73.62 199.76 80.54 207.00 83.76 216.21 C 86.13 223.20 86.37 230.99 84.01 238.02 C 82.77 241.47 80.09 245.16 76.06 245.17 C 73.19 244.30 72.81 240.89 74.60 238.79 C 79.61 238.07 79.93 231.99 80.34 228.00 C 81.15 216.35 73.77 206.44 66.46 198.18 C 59.23 206.50 51.82 216.36 52.66 228.03 C 53.07 232.02 53.41 238.08 58.41 238.79 C 60.23 240.94 59.76 244.39 56.84 245.24 C 52.78 244.96 50.13 241.40 48.93 237.83 C 45.92 228.74 47.24 218.42 51.99 210.16 C 55.38 204.07 60.31 199.05 65.15 194.11 Z" />
<path fill="#fef137" opacity="1.00" d=" M 22.11 214.11 C 31.92 212.40 41.98 221.04 41.48 231.03 C 41.77 240.19 33.16 248.54 23.99 247.86 C 15.49 247.96 7.81 240.42 7.56 231.95 C 6.76 223.38 13.62 215.13 22.11 214.11 M 17.05 223.29 C 15.13 223.79 12.99 224.08 11.54 225.58 C 8.91 227.72 8.72 231.87 10.20 234.73 C 11.54 237.28 14.50 237.98 17.08 238.55 C 17.02 242.77 20.67 246.68 25.02 246.17 C 29.16 246.20 31.65 242.15 32.15 238.47 C 35.19 238.09 38.30 236.60 39.31 233.48 C 41.30 228.69 37.12 223.41 32.13 223.40 C 31.64 219.68 29.17 215.69 25.02 215.64 C 20.63 215.14 17.14 219.11 17.05 223.29 Z" />
<path fill="#fef137" opacity="1.00" d=" M 102.63 214.91 C 112.11 211.21 123.95 217.88 125.18 228.08 C 127.30 237.78 118.93 248.02 109.01 247.87 C 99.45 248.57 90.62 239.54 91.53 230.00 C 91.61 223.28 96.54 217.34 102.63 214.91 M 100.81 223.40 C 96.40 223.52 92.42 227.59 93.30 232.10 C 93.82 235.82 97.29 238.22 100.87 238.46 C 101.39 242.13 103.80 246.18 107.95 246.17 C 112.31 246.70 115.96 242.77 115.93 238.55 C 117.80 238.03 119.89 237.78 121.36 236.39 C 123.91 234.41 124.11 230.67 123.16 227.83 C 121.95 224.96 118.83 223.77 115.96 223.33 C 115.87 219.15 112.42 215.17 108.02 215.64 C 103.82 215.64 101.37 219.69 100.81 223.40 Z" />
<path fill="#fef137" opacity="1.00" d=" M 63.32 238.30 C 66.28 235.95 71.81 237.96 71.57 241.99 C 71.23 246.88 63.15 247.40 61.59 243.01 C 60.89 241.25 61.85 239.30 63.32 238.30 Z" />
<path fill="#fef137" opacity="1.00" d=" M 84.62 249.68 C 82.92 250.97 81.74 247.46 83.93 247.57 L 84.69 248.00 C 84.67 248.42 84.63 249.26 84.62 249.68 Z" />
<path fill="#fef137" opacity="1.00" d=" M 48.54 248.04 C 59.87 261.51 71.07 275.10 83.27 287.81 C 85.06 289.12 84.77 291.38 84.79 293.33 C 72.46 280.56 60.95 267.01 49.79 253.20 C 48.24 251.87 48.39 249.87 48.54 248.04 Z" />
<path fill="#fef137" opacity="1.00" d=" M 54.74 249.18 C 60.26 250.92 65.93 253.11 71.78 251.47 C 75.06 255.43 78.38 259.35 81.95 263.05 C 83.58 264.73 85.00 266.62 85.91 268.79 C 83.66 267.19 81.98 264.97 79.90 263.18 C 79.50 263.39 78.69 263.79 78.28 264.00 C 80.20 266.98 82.89 269.34 85.36 271.86 C 85.36 272.37 85.38 273.41 85.39 273.92 C 83.32 271.77 81.45 269.42 79.16 267.49 L 77.73 268.07 C 79.30 272.43 84.58 274.25 85.69 278.82 C 82.89 276.78 81.10 273.59 78.11 271.83 L 77.36 273.18 C 79.45 277.30 85.13 279.23 85.33 284.21 C 74.55 273.06 64.50 261.23 54.74 249.18 Z" />
<path fill="#fef137" opacity="1.00" d=" M 75.40 249.76 C 76.10 249.69 77.50 249.54 78.20 249.46 C 81.41 252.61 85.86 255.94 85.27 261.02 C 81.96 257.28 78.59 253.60 75.40 249.76 Z" />
<path fill="#fef137" opacity="1.00" d=" M 47.90 256.99 C 57.93 269.33 68.38 281.34 79.14 293.06 C 81.24 295.29 83.47 297.47 84.88 300.24 C 82.11 299.07 80.66 295.17 77.88 294.85 L 77.37 296.04 C 79.45 298.84 82.39 300.92 84.27 303.90 C 81.13 301.79 79.02 298.54 75.97 296.32 C 74.36 297.24 75.68 298.72 76.48 299.54 C 78.98 302.41 82.27 304.65 84.07 308.09 C 80.67 306.28 79.23 301.80 75.29 301.00 C 75.30 301.80 75.32 303.41 75.33 304.21 C 66.48 294.21 57.72 284.14 49.40 273.69 C 48.51 272.57 47.74 271.37 47.04 270.12 C 48.78 271.63 50.28 273.38 51.99 274.93 L 53.09 274.27 C 52.31 271.06 48.76 269.05 47.37 265.93 C 50.09 268.87 52.46 272.15 55.39 274.90 C 56.25 274.77 56.70 274.28 56.73 273.44 C 53.93 269.48 49.91 266.42 47.77 261.97 C 50.41 264.79 52.37 268.47 55.87 270.33 L 56.55 269.01 C 53.90 264.85 49.06 261.96 47.90 256.99 Z" />
<path fill="#fef137" opacity="1.00" d=" M 47.61 277.82 C 58.90 291.41 70.34 304.90 82.61 317.63 C 82.36 318.45 81.86 320.08 81.61 320.89 C 70.55 308.42 59.27 296.13 48.92 283.06 C 47.47 281.69 47.82 279.59 47.61 277.82 Z" />
<path fill="#fef137" opacity="1.00" d=" M 48.19 288.11 C 56.69 299.04 66.01 309.34 75.33 319.59 C 76.83 321.45 79.14 323.01 79.37 325.60 C 76.75 323.71 74.69 321.21 72.44 318.93 C 72.20 319.32 71.72 320.09 71.48 320.47 C 72.84 323.20 75.49 324.99 77.20 327.49 C 74.87 326.42 73.29 324.37 71.61 322.53 C 70.78 323.21 69.96 323.89 69.14 324.57 C 63.91 320.19 60.04 314.48 55.50 309.44 C 52.97 306.28 49.97 303.42 48.23 299.72 C 50.87 301.57 52.63 304.34 54.99 306.51 L 56.33 306.17 L 56.33 305.07 C 53.72 301.38 49.90 298.60 47.93 294.43 C 50.92 296.72 52.61 300.45 56.03 302.20 L 56.57 300.89 C 54.12 297.31 50.97 294.28 48.24 290.92 C 48.23 290.21 48.20 288.81 48.19 288.11 Z" />
<path fill="#fef137" opacity="1.00" d=" M 75.58 304.92 C 76.02 304.50 76.45 304.08 76.89 303.67 C 78.20 307.26 82.66 308.65 83.38 312.48 C 80.63 310.12 78.36 307.25 75.58 304.92 Z" />
<path fill="#fef137" opacity="1.00" d=" M 49.41 308.12 C 53.86 313.55 58.40 318.91 63.01 324.20 C 62.31 324.39 60.91 324.79 60.21 324.98 C 57.17 321.26 53.93 317.72 50.95 313.96 C 49.57 312.34 49.75 310.08 49.41 308.12 Z" />
<path fill="#fef137" opacity="1.00" d=" M 50.83 320.26 C 53.19 322.69 55.69 325.06 57.58 327.90 C 56.27 327.16 55.07 326.27 54.21 325.01 C 52.23 324.10 50.81 322.61 50.83 320.26 Z" />
</g>
<g id="#cf2c38ff">
<path fill="#cf2c38" opacity="1.00" d=" M 65.23 207.32 C 67.28 206.61 69.34 207.86 70.29 209.67 C 73.49 214.13 72.95 219.89 72.80 225.07 C 72.76 228.66 71.46 232.28 68.88 234.83 C 67.49 236.21 64.83 235.98 63.69 234.37 C 59.26 229.11 59.04 221.53 60.37 215.08 C 61.21 212.18 62.36 208.78 65.23 207.32 M 62.16 213.37 C 64.46 215.12 65.52 211.02 67.65 212.38 C 69.98 214.92 70.33 218.63 70.34 221.92 C 70.07 225.80 69.87 231.16 64.97 231.80 C 65.64 232.83 66.31 234.28 67.84 233.89 C 72.50 231.49 72.23 225.50 72.36 221.02 C 72.33 216.88 71.92 211.35 67.64 209.35 C 64.83 208.12 63.18 211.36 62.16 213.37 M 63.80 216.00 C 64.53 216.38 65.98 217.13 66.71 217.51 C 66.89 221.50 67.39 225.88 64.54 229.13 C 65.14 229.48 66.34 230.17 66.94 230.51 C 69.79 225.59 70.81 218.47 66.91 213.86 C 65.57 214.09 64.54 214.80 63.80 216.00 Z" />
<path fill="#cf2c38" opacity="1.00" d=" M 44.19 331.23 C 45.34 329.13 47.33 326.60 50.06 327.41 C 52.41 328.43 53.49 330.88 54.74 332.94 C 52.86 337.96 53.02 343.37 53.73 348.60 C 54.24 351.64 51.04 353.29 48.96 354.73 C 45.00 352.67 42.55 348.48 42.24 344.09 C 41.91 339.76 41.82 335.07 44.19 331.23 M 47.80 329.44 C 47.56 330.48 47.33 331.51 47.11 332.55 C 48.98 333.50 51.42 336.67 53.26 334.02 C 53.82 330.84 50.32 329.65 47.80 329.44 Z" />
<path fill="#cf2c38" opacity="1.00" d=" M 63.39 328.56 C 64.77 327.23 67.14 327.22 68.58 328.47 C 72.25 331.46 73.67 336.37 73.88 340.93 C 74.14 346.05 73.07 351.65 69.44 355.49 C 67.74 357.54 64.24 357.46 62.58 355.41 C 59.32 351.81 58.10 346.75 58.25 341.99 C 58.14 337.12 59.68 331.89 63.39 328.56 M 64.48 332.59 C 69.43 337.85 69.24 347.04 64.37 352.29 C 65.20 353.01 66.05 353.70 66.93 354.37 C 71.91 351.11 72.10 344.39 71.66 339.06 C 71.50 335.50 69.51 332.44 67.04 330.02 C 66.18 330.86 65.33 331.72 64.48 332.59 Z" />
<path fill="#cf2c38" opacity="1.00" d=" M 82.15 328.07 C 86.37 325.89 89.20 331.43 90.27 334.74 C 91.09 340.46 91.62 347.05 87.93 351.95 C 86.78 353.43 85.01 355.12 82.97 354.35 C 80.23 352.90 77.92 349.72 78.63 346.51 C 79.20 343.05 78.93 339.54 78.36 336.10 C 77.64 332.94 79.78 329.92 82.15 328.07 M 82.97 331.84 C 87.03 336.48 87.32 343.79 83.76 348.79 C 82.02 350.35 84.76 352.74 86.27 351.42 C 90.41 347.94 89.99 341.92 89.65 337.06 C 89.47 333.86 87.53 331.16 85.04 329.30 C 84.35 330.14 83.66 330.99 82.97 331.84 Z" />
<path fill="#cf2c38" opacity="1.00" d=" M 54.62 364.53 C 53.37 361.33 52.66 356.83 56.22 354.92 C 58.52 358.10 61.70 361.41 65.98 361.16 C 70.53 361.45 73.77 357.77 76.27 354.48 C 77.70 356.03 79.99 357.44 79.37 359.91 C 79.39 367.19 72.06 373.16 64.97 372.23 C 60.52 371.58 56.47 368.65 54.62 364.53 M 74.96 357.06 C 73.08 359.44 73.35 363.58 70.06 365.04 C 67.66 367.48 62.78 364.58 61.50 368.08 C 62.12 370.47 65.13 370.20 67.07 370.13 C 72.93 369.68 77.84 364.22 77.67 358.36 C 77.33 356.97 76.42 356.54 74.96 357.06 Z" />
</g>
<g id="#0a0203ff">
<path fill="#0a0203" opacity="1.00" d=" M 63.80 216.00 C 64.54 214.80 65.57 214.09 66.91 213.86 C 70.81 218.47 69.79 225.59 66.94 230.51 C 66.34 230.17 65.14 229.48 64.54 229.13 C 67.39 225.88 66.89 221.50 66.71 217.51 C 65.98 217.13 64.53 216.38 63.80 216.00 Z" />
</g>
<g id="#3c6d3dff">
<path fill="#3c6d3d" opacity="1.00" d=" M 20.14 224.28 C 20.02 221.36 22.69 217.47 25.91 219.14 C 28.08 219.87 28.54 222.19 28.69 224.20 C 25.85 223.65 22.96 223.60 20.14 224.28 Z" />
<path fill="#3c6d3d" opacity="1.00" d=" M 103.92 223.73 C 104.73 221.69 105.55 219.28 107.97 218.71 C 111.01 218.48 112.80 221.49 112.87 224.19 C 109.90 223.83 106.91 223.71 103.92 223.73 Z" />
<path fill="#3c6d3d" opacity="1.00" d=" M 12.43 230.98 C 12.19 227.97 15.37 226.89 17.75 226.49 C 17.40 229.41 17.38 232.35 17.72 235.28 C 15.42 234.84 12.23 233.96 12.43 230.98 Z" />
<path fill="#3c6d3d" opacity="1.00" d=" M 22.38 227.51 C 25.15 224.99 29.88 229.09 28.31 232.30 C 27.43 235.11 23.34 235.87 21.48 233.62 C 19.55 231.93 20.19 228.65 22.38 227.51 Z" />
<path fill="#3c6d3d" opacity="1.00" d=" M 31.30 226.56 C 33.52 226.97 36.26 227.74 36.51 230.43 C 37.02 233.50 33.88 235.13 31.25 235.12 C 31.76 232.29 31.75 229.40 31.30 226.56 Z" />
<path fill="#3c6d3d" opacity="1.00" d=" M 96.48 231.56 C 95.94 228.46 99.06 226.76 101.71 226.58 C 101.25 229.42 101.24 232.30 101.76 235.13 C 99.51 234.90 96.82 234.23 96.48 231.56 Z" />
<path fill="#3c6d3d" opacity="1.00" d=" M 106.45 227.45 C 109.57 224.92 114.43 229.67 112.09 232.90 C 110.70 235.51 106.41 235.67 105.04 232.97 C 103.66 231.16 104.61 228.52 106.45 227.45 Z" />
<path fill="#3c6d3d" opacity="1.00" d=" M 115.26 226.53 C 117.64 226.92 120.80 227.96 120.57 230.97 C 120.79 233.93 117.60 234.85 115.30 235.27 C 115.59 232.36 115.57 229.43 115.26 226.53 Z" />
<path fill="#3c6d3d" opacity="1.00" d=" M 20.06 237.65 C 22.99 238.11 25.97 238.12 28.90 237.64 C 28.41 239.80 27.73 242.81 24.96 242.88 C 21.84 243.48 20.30 240.22 20.06 237.65 Z" />
<path fill="#3c6d3d" opacity="1.00" d=" M 104.06 237.67 C 107.01 238.10 109.99 238.10 112.94 237.66 C 112.69 240.21 111.18 243.44 108.09 242.89 C 105.25 242.96 104.61 239.79 104.06 237.67 Z" />
</g>
</svg>
